<?xml version="1.0" encoding="UTF-8"?>
<svg version="1.1" xmlns="http://www.w3.org/2000/svg" width="1080" height="1080">
<path d="M0 0 C356.4 0 712.8 0 1080 0 C1080 356.4 1080 712.8 1080 1080 C723.6 1080 367.2 1080 0 1080 C0 723.6 0 367.2 0 0 Z " fill="#000100" transform="translate(0,0)"/>
<path d="M0 0 C356.4 0 712.8 0 1080 0 C1080 356.4 1080 712.8 1080 1080 C1079.67 1080 1079.34 1080 1079 1080 C1079 892.89 1079 705.78 1079 513 C722.93 513 366.86 513 0 513 C0 343.71 0 174.42 0 0 Z " fill="#F0AC4D" transform="translate(0,0)"/>
<path d="M0 0 C26.4 0 52.8 0 80 0 C86.16384809 12.94408099 92.22915613 25.79095969 97.75 39 C98.08560944 39.79960144 98.42121887 40.59920288 98.76699829 41.42303467 C106.01444964 58.71842163 112.71730692 76.20292894 119.19055176 93.80090332 C119.96812004 95.91338901 120.7487777 98.02470679 121.53027344 100.13574219 C131.40606253 126.85132 140.56685573 153.82116842 149.80290222 180.76261902 C154.26213899 193.76986729 158.73627671 206.77196711 163.21343231 219.77305698 C164.74576451 224.22276186 166.27736293 228.67271869 167.80859375 233.12280273 C168.62757478 235.50245152 169.44658463 237.88209039 170.265625 240.26171875 C170.65883438 241.40436188 171.05204376 242.547005 171.45716858 243.72427368 C173.46999549 249.56992977 175.48898277 255.41337315 177.51733398 261.25366211 C178.12983002 263.01822502 178.12983002 263.01822502 178.75469971 264.81843567 C179.52575737 267.03854082 180.29785785 269.25828419 181.07122803 271.47758484 C185.71705923 284.85479039 188 295.26551379 188 310 C164.24 310 140.48 310 116 310 C111.50002934 298.75007335 111.50002934 298.75007335 110.21655273 294.87670898 C109.92622665 294.00557968 109.63590057 293.13445038 109.33677673 292.23692322 C109.03872635 291.33244949 108.74067596 290.42797577 108.43359375 289.49609375 C108.11342789 288.53276627 107.79326202 287.56943878 107.46339417 286.57691956 C106.4519079 283.53138467 105.44461696 280.48448218 104.4375 277.4375 C103.75874455 275.39118281 103.07971034 273.34495806 102.40039062 271.29882812 C101.14988578 267.53108641 99.90101449 263.76281222 98.65405273 259.99389648 C97.10956426 255.32696989 95.55668545 250.66287104 94 246 C93.25815964 245.95432892 92.51631927 245.90865784 91.7519989 245.86160278 C84.62297472 245.42240491 77.494055 244.98155233 70.36523724 244.53901863 C66.7037487 244.3117792 63.04222795 244.08509374 59.38061523 243.85986328 C55.132537 243.59848131 50.88460184 243.33484516 46.63671875 243.0703125 C45.93375546 243.02673866 45.23079216 242.98316483 44.50652695 242.93827057 C35.96397632 242.4070788 27.4303792 241.81300024 18.8976593 241.1388855 C7.90113362 240.27051671 -2.96978565 239.71996635 -14 240 C-14.18062988 240.97420898 -14.36125977 241.94841797 -14.54736328 242.95214844 C-18.24298392 262.84771626 -22.07621024 282.68908482 -26.44677734 302.44921875 C-26.99142461 304.96046086 -27.49605489 307.48027444 -28 310 C-51.76 310 -75.52 310 -100 310 C-98.84551792 290.37380458 -98.84551792 290.37380458 -97.3125 283.5 C-97.13879883 282.68289551 -96.96509766 281.86579102 -96.78613281 281.02392578 C-96.2077909 278.34521043 -95.60594649 275.67259773 -95 273 C-94.78714355 272.04061523 -94.57428711 271.08123047 -94.35498047 270.09277344 C-84.93607747 227.90978822 -69.00636646 187.55597897 -54.05177307 147.10551453 C-53.589193 145.85420084 -53.12662286 144.60288347 -52.6640625 143.3515625 C-52.43321898 142.72711054 -52.20237545 142.10265858 -51.96453667 141.45928383 C-46.6749445 127.14707796 -41.44538224 112.81312579 -36.2206192 98.47715378 C-28.2682294 76.65828259 -20.28159832 54.85234474 -12.25 33.0625 C-11.79939209 31.83982422 -11.34878418 30.61714844 -10.88452148 29.35742188 C-9.61616257 25.91650423 -8.34731305 22.47576815 -7.078125 19.03515625 C-6.52194489 17.52714195 -6.52194489 17.52714195 -5.95452881 15.98866272 C-5.60763 15.04889084 -5.2607312 14.10911896 -4.90332031 13.14086914 C-4.60629211 12.33605606 -4.30926392 11.53124298 -4.00323486 10.70204163 C-2.67751939 7.13145359 -1.33734343 3.56624915 0 0 Z " fill="#080502" transform="translate(166,85)"/>
<path d="M0 0 C17.82974222 14.30528807 38.75671952 35.64574258 41.4387207 59.47485352 C42.51945501 70.62887919 42.95609997 81.73570535 42.9375 92.9375 C42.93656342 93.67394745 42.93562683 94.4103949 42.93466187 95.16915894 C42.87561047 116.78866087 41.27445414 137.67731538 36.41308594 158.79956055 C35.95249472 160.80557437 35.52022572 162.81821749 35.11035156 164.83520508 C33.68687939 171.37535914 32.02083825 175.79700154 27.375 180.625 C26.84680664 181.20362793 26.31861328 181.78225586 25.77441406 182.37841797 C24.12193056 184.17063712 22.43866852 185.92941391 20.75 187.6875 C19.71072951 188.80579633 18.67166312 189.92428237 17.6328125 191.04296875 C-1.61346329 211.37005501 -31.96234489 231.5689301 -60.79174805 232.7956543 C-93.26135617 233.46185093 -130.78949265 228.57969499 -155.765625 205.2109375 C-156.25546875 204.70820312 -156.7453125 204.20546875 -157.25 203.6875 C-157.76046875 203.16414062 -158.2709375 202.64078125 -158.796875 202.1015625 C-160.7011088 200.02504088 -162.47743553 197.87812212 -164.25 195.6875 C-164.90210449 194.88723389 -164.90210449 194.88723389 -165.56738281 194.07080078 C-191.113578 162.40217847 -200.78877764 124.60591213 -196.5625 84.375 C-194.25592228 69.04586887 -190.23401924 54.54368233 -183.25 40.6875 C-182.92547852 40.03330078 -182.60095703 39.37910156 -182.26660156 38.70507812 C-176.63943487 27.53790318 -169.53762465 18.01798408 -161.25 8.6875 C-160.67507813 8.0279834 -160.10015625 7.3684668 -159.5078125 6.68896484 C-119.41667115 -38.69197987 -45.0398176 -34.73771636 0 0 Z " fill="#F6F6F6" transform="translate(654.25,765.3125)"/>
<path d="M0 0 C0.74733398 0.15484863 1.49466797 0.30969727 2.26464844 0.46923828 C21.29929754 4.52116854 36.06406135 14.78800621 50 28 C50.7734375 28.7321875 51.546875 29.464375 52.34375 30.21875 C54.61853244 32.43120963 56.81814343 34.69605398 59 37 C59.71414063 37.72316406 60.42828125 38.44632813 61.1640625 39.19140625 C80.25090978 60.31561363 78.29310045 102.38068901 77 129 C75.84367705 142.76880852 72.67857621 156.02511132 68 169 C67.53124546 170.34635258 67.06249556 171.69270679 66.59375 173.0390625 C58.08571977 197.02066133 45.85742078 212.54290168 23.5 224.75 C3.74177242 233.80154405 -15.18577215 234.81440074 -36.6875 234.4375 C-38.71410473 234.41838858 -40.74067882 234.40504842 -42.76733685 234.39300442 C-74.94420487 234.19877122 -74.94420487 234.19877122 -87.3125 229.875 C-88.21967773 229.56151611 -89.12685547 229.24803223 -90.06152344 228.92504883 C-102.72063592 224.44095874 -112.62513686 219.89189852 -121 209 C-121.82113281 207.99710938 -122.64226563 206.99421875 -123.48828125 205.9609375 C-144.47716596 180.03982437 -152.48384461 148.90098149 -152.3125 115.9375 C-152.31001251 115.1706488 -152.30752502 114.40379761 -152.30496216 113.6137085 C-152.16974751 86.58553043 -147.16207251 62.34725041 -133 39 C-132.3488623 37.90099365 -132.3488623 37.90099365 -131.68457031 36.77978516 C-124.63559309 25.10128996 -117.14565804 18.12428122 -105 12 C-104.36658691 11.66822754 -103.73317383 11.33645508 -103.08056641 10.99462891 C-71.06709885 -5.66705854 -34.84031934 -7.47524145 0 0 Z " fill="#050301" transform="translate(929,164)"/>
<path d="M0 0 C71.28 0 142.56 0 216 0 C216 19.8 216 39.6 216 60 C169.47 60 122.94 60 75 60 C75 86.73 75 113.46 75 141 C116.58 141 158.16 141 201 141 C201 160.8 201 180.6 201 201 C159.42 201 117.84 201 75 201 C75 239.94 75 278.88 75 319 C50.25 319 25.5 319 0 319 C0 213.73 0 108.46 0 0 Z " fill="#F4F4F4" transform="translate(108,668)"/>
<path d="M0 0 C21.78 0 43.56 0 66 0 C67.66783702 28.22608476 68.86660083 56.4517636 69.93328857 84.70605469 C70.27677173 93.79464827 70.62460161 102.88307431 70.97427177 111.97143173 C71.09369274 115.09175103 71.21104889 118.2121426 71.32814026 121.33255005 C71.40207199 123.27656414 71.47635827 125.22056479 71.55102539 127.16455078 C71.60474351 128.56361255 71.60474351 128.56361255 71.65954685 129.99093819 C71.94103412 137.06943103 72.34085339 144.13583792 72.81297302 151.20407104 C73.09609374 158.46412983 73 165.73442288 73 173 C89.83 173 106.66 173 124 173 C124.66 171.35 125.32 169.7 126 168 C126.8917347 166.54690219 127.81013008 165.10993754 128.75 163.6875 C143.81843871 138.75809772 141.01228052 107.44621124 141.75672626 79.35132694 C142.45842871 52.8706556 143.36909879 26.4438982 145 0 C166.45 0 187.9 0 210 0 C210 75.9 210 151.8 210 230 C188.55 230 167.1 230 145 230 C142.69 225.71 140.38 221.42 138 217 C136.411875 218.010625 134.82375 219.02125 133.1875 220.0625 C131.75730565 220.97262368 130.32586795 221.88093022 128.88476562 222.77368164 C127.43938092 223.71411783 126.03308357 224.71485616 124.64648438 225.73999023 C117.27020756 230.95539622 111.0494665 232.31703482 102.125 232.9375 C100.22113525 233.09931763 100.22113525 233.09931763 98.27880859 233.2644043 C71.90346748 235.34789329 46.46616231 234.53284582 23 221 C21.98164063 220.41605469 20.96328125 219.83210937 19.9140625 219.23046875 C16.58834996 216.68491666 14.84237377 214.04575728 13 210.375 C12.49690308 209.38874634 12.49690308 209.38874634 11.98364258 208.38256836 C-0.96704192 182.12085928 -0.44878302 153.86209211 -0.30418181 125.2578907 C-0.28513104 120.83775407 -0.28364265 116.41760788 -0.28010559 111.99743652 C-0.27086698 103.66834218 -0.24636699 95.33936925 -0.21605712 87.01032782 C-0.18225452 77.51057384 -0.16596283 68.01081335 -0.15097082 58.51101398 C-0.11980774 39.00726032 -0.0649013 19.50367259 0 0 Z " fill="#050301" transform="translate(375,165)"/>
<path d="M0 0 C22.11 0 44.22 0 67 0 C67 19.8 67 39.6 67 60 C81.52 60 96.04 60 111 60 C111 77.16 111 94.32 111 112 C96.48 112 81.96 112 67 112 C67.50660156 120.57742188 67.50660156 120.57742188 68.0234375 129.328125 C68.24225504 133.03775646 68.4610353 136.74739005 68.6796875 140.45703125 C69.02373875 146.29412878 69.36789875 152.13121969 69.71289062 157.96826172 C70.4288247 170.08368494 71.13909889 182.19942501 71.84355164 194.31552124 C71.99832255 196.9712169 72.15412302 199.62685037 72.31018066 202.2824707 C72.55378686 206.43238587 72.79376191 210.5824962 73.03099442 214.73278046 C73.11799652 216.24577362 73.20614208 217.75870157 73.29557419 219.27155304 C73.4185831 221.3563175 73.53718589 223.44129147 73.65478516 225.52636719 C73.75540756 227.2671756 73.75540756 227.2671756 73.85806274 229.04315186 C74.04874524 234.35889274 74 239.6808402 74 245 C86.21 245 98.42 245 111 245 C111 264.8 111 284.6 111 305 C105.039375 305.165 99.07875 305.33 92.9375 305.5 C91.09019287 305.55220703 89.24288574 305.60441406 87.33959961 305.65820312 C61.11309878 306.37961057 35.79614229 306.46824073 14.0703125 289.4921875 C3.07856592 278.14395184 -1.47758669 260.36268243 -1.35644531 245.18505859 C-1.35951187 243.31947296 -1.35951187 243.31947296 -1.36264038 241.41619873 C-1.36511893 238.03131473 -1.35431478 234.64699002 -1.33711338 231.26218367 C-1.32194703 227.69560025 -1.32324815 224.12901871 -1.32244873 220.56240845 C-1.31876605 214.56905946 -1.30385765 208.57582565 -1.28125 202.58251953 C-1.25246457 194.93688685 -1.24203061 187.29134713 -1.2375679 179.64566612 C-1.23355593 173.02071164 -1.22105508 166.39577659 -1.20722103 159.77083635 C-1.20316222 157.66772411 -1.20021629 155.56461252 -1.19742584 153.46149826 C-1.19152139 149.50474062 -1.17679555 145.54804008 -1.16113281 141.59130859 C-1.16001495 140.44894745 -1.15889709 139.3065863 -1.15774536 138.12960815 C-1.11224749 129.35389539 -0.55015955 120.80255273 0 112 C-12.21 112 -24.42 112 -37 112 C-37 94.84 -37 77.68 -37 60 C-24.79 60 -12.58 60 0 60 C0 40.2 0 20.4 0 0 Z " fill="#F7F7F7" transform="translate(746,690)"/>
<path d="M0 0 C23.76 0 47.52 0 72 0 C72 19.14 72 38.28 72 58 C83.88 58 95.76 58 108 58 C108 74.5 108 91 108 108 C96.12 108 84.24 108 72 108 C72.495 111.465 72.495 111.465 73 115 C73.13804073 116.53814466 73.25623815 118.07829268 73.34803772 119.61988831 C73.4258271 120.89133949 73.4258271 120.89133949 73.50518799 122.18847656 C73.55769714 123.09509033 73.6102063 124.0017041 73.66430664 124.93579102 C73.72297409 125.9091893 73.78164154 126.88258759 73.84208679 127.88548279 C74.03444941 131.09145274 74.22249389 134.29765797 74.41015625 137.50390625 C74.54311165 139.7472361 74.6762061 141.99055772 74.80943298 144.23387146 C75.08790779 148.93517823 75.36414602 153.63661007 75.63891602 158.33813477 C75.9894022 164.33085072 76.34624251 170.32316859 76.7049036 176.31540012 C76.98148058 180.95067043 77.2542012 185.58616186 77.52584648 190.22172356 C77.65573672 192.42914268 77.78689142 194.6364878 77.91938972 196.84375191 C78.60174151 208.24138484 79.22913884 219.57708212 79 231 C79.76785324 231.30259735 80.53570648 231.6051947 81.326828 231.91696167 C84.21111858 233.08553491 86.95788796 234.42268165 89.73828125 235.8203125 C90.70032471 236.30258301 91.66236816 236.78485352 92.65356445 237.28173828 C93.86101318 237.89001465 95.06846191 238.49829102 96.3125 239.125 C100.169375 241.06375 104.02625 243.0025 108 245 C108 259.52 108 274.04 108 289 C72.7267479 291.48622041 72.7267479 291.48622041 56 291 C54.74058594 290.97035156 53.48117187 290.94070313 52.18359375 290.91015625 C39.35786139 290.3008225 28.08943864 284.70237456 18.125 276.6875 C3.81603956 258.59087356 -1.19114444 234.12980081 -1.11352539 211.53515625 C-1.11367142 210.41232742 -1.11381744 209.2894986 -1.1139679 208.13264465 C-1.11327443 204.44257639 -1.1055086 200.75255938 -1.09765625 197.0625 C-1.09579006 194.49560575 -1.0943671 191.92871114 -1.09336853 189.36181641 C-1.08994799 183.3094844 -1.08207642 177.25717337 -1.07201904 171.20484924 C-1.06081217 164.30999697 -1.05533596 157.41514378 -1.05032361 150.52028465 C-1.03989247 136.34684507 -1.02156537 122.17342692 -1 108 C-10.24 108 -19.48 108 -29 108 C-29 91.5 -29 75 -29 58 C-19.43 58 -9.86 58 0 58 C0 38.86 0 19.72 0 0 Z " fill="#0D0904" transform="translate(643,107)"/>
<path d="M0 0 C24.42 0 48.84 0 74 0 C74 105.27 74 210.54 74 319 C49.58 319 25.16 319 0 319 C0 213.73 0 108.46 0 0 Z " fill="#F3F3F3" transform="translate(353,668)"/>
<path d="M0 0 C13.26978668 -0.32201707 22.15302756 1.81762593 32.55078125 10.15625 C33.51757812 10.89359375 34.484375 11.6309375 35.48046875 12.390625 C39.12352066 15.45192543 41.69824447 19.1196048 44.36328125 23.03125 C44.85248047 23.71316406 45.34167969 24.39507812 45.84570312 25.09765625 C46.31169922 25.77441406 46.77769531 26.45117188 47.2578125 27.1484375 C47.67522705 27.75026855 48.0926416 28.35209961 48.52270508 28.97216797 C51.03590709 34.31130479 50.7096732 40.46221372 50.71875 46.2578125 C50.7237426 47.39529434 50.7237426 47.39529434 50.72883606 48.55575562 C50.73387239 50.15418904 50.73624541 51.75263287 50.73608398 53.35107422 C50.7382564 55.75376485 50.75640839 58.15598493 50.77539062 60.55859375 C50.85489755 82.06813681 46.74411526 106.86624899 34.55078125 125.15625 C32.60229492 125.92407227 32.60229492 125.92407227 30.21875 126.47265625 C28.90704834 126.7816687 28.90704834 126.7816687 27.56884766 127.09692383 C26.16771729 127.40472778 26.16771729 127.40472778 24.73828125 127.71875 C23.78356934 127.93490967 22.82885742 128.15106934 21.84521484 128.3737793 C14.78114415 129.94576523 7.76026795 131.44262061 0.55078125 132.15625 C-0.58875 132.29804688 -1.72828125 132.43984375 -2.90234375 132.5859375 C-13.98225966 133.36388904 -24.70564536 130.15498135 -33.44921875 123.15625 C-37.47715706 118.48439819 -39.48536182 112.9213548 -41.44921875 107.15625 C-41.87074219 106.08632813 -42.29226563 105.01640625 -42.7265625 103.9140625 C-47.30193341 91.6370886 -47.80625193 78.91716734 -47.69921875 65.96875 C-47.69445526 65.24491119 -47.68969177 64.52107239 -47.68478394 63.77529907 C-47.64718551 58.90102261 -47.5604521 54.02938933 -47.44921875 49.15625 C-47.42939941 48.14014648 -47.40958008 47.12404297 -47.38916016 46.07714844 C-47.0605405 34.72825826 -44.34221831 27.68122738 -36.44921875 19.15625 C-35.46882633 17.88636205 -34.48947268 16.61567059 -33.51171875 15.34375 C-26.76014347 7.69693822 -16.19745732 1.07477204 -5.8671875 0.25 C-3.91115341 0.17416023 -1.95549836 0.0885843 0 0 Z " fill="#E9A84A" transform="translate(889.44921875,212.84375)"/>
<path d="M0 0 C10.55092583 6.88764438 19.15939086 16.16604757 22.19140625 28.53125 C22.47371094 29.59601562 22.75601563 30.66078125 23.046875 31.7578125 C28.4733917 53.5148325 27.81814059 76.17414916 21.19140625 97.53125 C20.86527344 98.66691406 20.53914062 99.80257812 20.203125 100.97265625 C16.34811509 112.15069657 6.46871604 123.65166032 -3.76953125 129.58984375 C-14.98737894 134.768965 -29.7771761 133.38856655 -41.265625 129.75390625 C-43.27653916 128.82975832 -44.99958617 127.80440456 -46.80859375 126.53125 C-47.45957031 126.08265625 -48.11054687 125.6340625 -48.78125 125.171875 C-60.35071589 116.16597092 -65.04454608 102.14592057 -68.80859375 88.53125 C-69.15841309 87.31864502 -69.50823242 86.10604004 -69.86865234 84.85668945 C-71.00741656 80.24005339 -71.09730795 75.79865812 -71.07421875 71.0625 C-71.0761322 70.18275513 -71.07804565 69.30301025 -71.08001709 68.39660645 C-71.0813702 66.54776725 -71.07773526 64.69891827 -71.06933594 62.85009766 C-71.05862393 60.03916849 -71.06926109 57.22887832 -71.08203125 54.41796875 C-71.0807095 52.61197777 -71.07814679 50.80598719 -71.07421875 49 C-71.07826721 48.16956177 -71.08231567 47.33912354 -71.08648682 46.48352051 C-71.03376727 39.84018445 -70.33317959 33.37647751 -66.7421875 27.6015625 C-66.34386719 26.95630615 -65.94554687 26.3110498 -65.53515625 25.64624023 C-64.89707031 24.66119507 -64.89707031 24.66119507 -64.24609375 23.65625 C-63.80136719 22.96152588 -63.35664062 22.26680176 -62.8984375 21.55102539 C-48.06262977 -1.12679221 -25.76585163 -13.47421448 0 0 Z " fill="#060606" transform="translate(600.80859375,804.46875)"/>
<path d="M0 0 C6.05386526 1.14152197 10.59893253 3.12903388 14.63671875 7.95703125 C23.23672491 21.2069095 26.74715568 38.35149957 31.20361328 53.33007812 C31.89707979 55.65495541 32.60020871 57.97651306 33.30859375 60.296875 C34.58894374 64.51747945 35.80068253 68.75575331 37 73 C37.44206787 74.54059082 37.44206787 74.54059082 37.89306641 76.11230469 C38.8881286 79.61079714 39.85278895 83.1166587 40.8125 86.625 C41.12703125 87.72102539 41.4415625 88.81705078 41.765625 89.94628906 C44.17777197 98.9489576 44 105.08717368 44 115 C20.24 115 -3.52 115 -28 115 C-26.76832487 105.14659895 -25.52137575 95.74673438 -23.375 86.125 C-23.11702637 84.9508252 -22.85905273 83.77665039 -22.59326172 82.56689453 C-21.88796559 79.38078689 -21.1741242 76.1967789 -20.4543457 73.01391602 C-19.98917845 70.95203282 -19.52843109 68.88919757 -19.06835938 66.82617188 C-13.9888533 44.10899467 -8.12150015 21.85387901 0 0 Z " fill="#D29743" transform="translate(202,158)"/>
</svg>
